<svg width="24" height="24" viewBox="0 0 24 24" fill="none" xmlns="http://www.w3.org/2000/svg">
<g clip-path="url(#clip0_1641_833)">
<path xmlns="http://www.w3.org/2000/svg"
      fill="#ffffff"
      d="M8,12c3.309,0,6-2.691,6-6S11.309,0,8,0,2,2.691,2,6s2.691,6,6,6Zm0-11c2.757,0,5,2.243,5,5s-2.243,5-5,5S3,8.757,3,6,5.243,1,8,1Zm8,21v1.5c0,.276-.224,.5-.5,.5s-.5-.224-.5-.5v-1.5c0-3.86-3.141-7-7-7s-7,3.14-7,7v1.5c0,.276-.224,.5-.5,.5s-.5-.224-.5-.5v-1.5c0-4.411,3.589-8,8-8s8,3.589,8,8Zm8-10.5c0,.276-.224,.5-.5,.5h-3.5v3.5c0,.276-.224,.5-.5,.5s-.5-.224-.5-.5v-3.5h-3.5c-.276,0-.5-.224-.5-.5s.224-.5,.5-.5h3.5v-3.5c0-.276,.224-.5,.5-.5s.5,.224,.5,.5v3.5h3.5c.276,0,.5,.224,.5,.5Z"/>

</g>
<defs>
<clipPath id="clip0_1641_833">
<rect width="24" height="24" fill="white"/>
</clipPath>
</defs>
</svg>
