<svg xmlns="http://www.w3.org/2000/svg" viewBox="0 0 128 128">
  <defs>
    <linearGradient id="bg" x1="0" y1="0" x2="1" y2="1">
      <stop offset="0%" stop-color="#fb923c"/>
      <stop offset="100%" stop-color="#dc2626"/>
    </linearGradient>
  </defs>
  <circle cx="64" cy="64" r="62" fill="url(#bg)"/>
  <circle cx="64" cy="64" r="56" fill="none" stroke="#ffffff" stroke-opacity=".45" stroke-width="4"/>
  <path d="M66 24c7 13 3 19-1 25 14-4 25 8 25 23 0 17-12 30-27 30s-27-13-27-30c0-10 5-17 10-22 3 8 6 13 11 15-2-10 2-18 9-28z" fill="#fcd34d"/>
  <path d="M65 52c6 7 8 12 8 18 0 8-5 14-11 14s-11-6-11-14c0-4 2-8 6-12 1 5 4 7 8 8-1-5 0-9 0-14z" fill="#fb7185"/>
</svg>
